<svg width="24" height="24" viewBox="0 0 24 24" fill="none" xmlns="http://www.w3.org/2000/svg">
<path d="M12 3C16.9704 3.0002 21 7.02956 21 12C21 16.9704 16.9704 20.9998 12 21C7.40994 20.9998 3.62319 17.5644 3.06934 13.124C3.00105 12.5762 3.38982 12.0765 3.9375 12.0078C4.48543 11.9395 4.98521 12.3281 5.05371 12.876C5.48415 16.3279 8.43125 18.9998 12 19C15.8658 18.9998 19 15.8659 19 12C19 8.13413 15.8658 5.0002 12 5C9.62253 5.00012 7.52037 6.18577 6.25488 8H8.5C9.05228 8 9.5 8.44772 9.5 9C9.5 9.55228 9.05228 10 8.5 10H4C3.44772 10 3 9.55228 3 9V4.5C3 3.94772 3.44772 3.5 4 3.5C4.55228 3.5 5 3.94772 5 4.5V6.3418C6.64954 4.30386 9.17219 3.00011 12 3Z" fill="#A7AAB3"/>
</svg>
