<svg width="91" height="24" viewBox="0 0 91 24" fill="none" xmlns="http://www.w3.org/2000/svg">
<path d="M84.5888 15.5122C84.6019 16.1149 84.7591 16.5538 85.0604 16.829C85.3749 17.091 85.8203 17.222 86.3968 17.222C87.6153 17.222 88.7027 17.1827 89.6592 17.1041L90.2094 17.0451L90.2487 18.9907C88.742 19.3576 87.3794 19.541 86.161 19.541C84.6805 19.541 83.6061 19.148 82.938 18.3619C82.2698 17.5758 81.9357 16.2983 81.9357 14.5296C81.9357 11.0052 83.3834 9.24304 86.2789 9.24304C89.1351 9.24304 90.5632 10.7235 90.5632 13.6845L90.3667 15.5122H84.5888ZM87.969 13.5077C87.969 12.7216 87.8446 12.1778 87.5956 11.8765C87.3467 11.5621 86.9078 11.4048 86.2789 11.4048C85.6631 11.4048 85.2242 11.5686 84.9622 11.8961C84.7132 12.2106 84.5822 12.7478 84.5691 13.5077H87.969Z" fill="#090F1B"/>
<path d="M79.9166 12.5447V16.6324C79.9428 16.9469 79.9952 17.1696 80.0738 17.3006C80.1524 17.4185 80.3162 17.5037 80.5651 17.5561L80.4865 19.541C79.8183 19.541 79.2812 19.4952 78.875 19.4035C78.4819 19.3117 78.0823 19.1283 77.6762 18.8532C76.7329 19.3117 75.7699 19.541 74.7872 19.541C72.7565 19.541 71.7411 18.4667 71.7411 16.318C71.7411 15.2698 72.0228 14.5296 72.5862 14.0972C73.1495 13.6518 74.0142 13.3897 75.1803 13.3111L77.2831 13.1539V12.5447C77.2831 12.1385 77.1914 11.8634 77.008 11.7193C76.8246 11.5621 76.5298 11.4834 76.1236 11.4834L72.4289 11.6407L72.3503 9.81297C73.7522 9.43302 75.082 9.24304 76.3398 9.24304C77.6107 9.24304 78.5212 9.50508 79.0715 10.0291C79.6349 10.5532 79.9166 11.3917 79.9166 12.5447ZM75.4947 15.1388C74.761 15.2043 74.3942 15.5974 74.3942 16.318C74.3942 17.0386 74.7152 17.3989 75.3572 17.3989C75.855 17.3989 76.3988 17.3203 76.9883 17.1631L77.2831 17.0844V14.9816L75.4947 15.1388Z" fill="#090F1B"/>
<path d="M67.2433 19.3052V16.0428H70.0733V19.3052H67.2433Z" fill="#090F1B"/>
<path d="M57.1492 9.47876H59.7433L61.5317 17.0647H61.9837L63.7721 9.47876H66.3663L62.9074 23.4321H60.3329L61.4138 19.3051H59.5664L57.1492 9.47876Z" fill="#090F1B"/>
<path d="M52.874 19.3052V5.54834H55.5075V19.3052H52.874Z" fill="#090F1B"/>
<path d="M48.8369 11.7193V19.3052H46.2035V11.7193H45.1422V9.47886H46.2035V9.0465C46.2035 7.63151 46.4131 6.65543 46.8323 6.11826C47.2516 5.58109 47.9984 5.3125 49.0727 5.3125C49.5444 5.3125 50.1536 5.37801 50.9004 5.50903L51.3131 5.56798L51.2738 7.71012C50.6974 7.68392 50.2126 7.67082 49.8195 7.67082C49.4265 7.67082 49.1645 7.77563 49.0334 7.98526C48.9024 8.19489 48.8369 8.55518 48.8369 9.06615V9.47886H51.2149V11.7193H48.8369Z" fill="#090F1B"/>
<path fill-rule="evenodd" clip-rule="evenodd" d="M5.41173 0.325195C6.91464 0.0201949 8.90351 -0.085992 11.1676 0.0761719C14.5815 0.320767 18.2745 0.700253 25.4938 3.47461C26.096 3.18225 26.6497 2.92473 27.1442 2.69141C31.0028 1.73862 34.1833 2.69166 35.5748 5.38379C36.657 7.47847 35.5736 11.9549 32.985 13.5986C31.4922 14.5459 27.5003 15.4999 26.1861 15C24.6437 16.2794 22.4597 18.1749 19.4938 20.1934C16.5279 22.2117 13.2697 24.0297 10.9088 22.8496C9.31819 20.1983 10.5864 16.5941 13.3649 12.9609C12.1385 13.1961 10.8858 13.3403 9.65001 13.3379C6.31965 13.3313 3.96475 12.6623 2.4215 11.8643C1.65309 11.4668 1.07333 11.0313 0.678332 10.6191C0.482269 10.4145 0.317287 10.2005 0.199816 9.98535C0.0971492 9.79723 -0.0317311 9.49455 0.00743331 9.15137V9.14648L0.0142692 9.09766L0.0152458 9.09277C0.106397 8.48357 0.511355 7.98091 0.94884 7.5957C1.42085 7.18026 2.05451 6.79111 2.7965 6.4375C3.29901 6.19805 3.86601 5.9681 4.48888 5.75195C4.24845 5.57626 4.02853 5.40113 3.8297 5.22656C3.22465 4.69529 2.79695 4.17053 2.52989 3.70508C2.39717 3.47366 2.29333 3.23912 2.234 3.0127C2.18259 2.81616 2.1301 2.49813 2.24962 2.17871L2.25255 2.17285L2.27013 2.12891L2.27208 2.125C2.49966 1.57672 2.992 1.20737 3.47618 0.957031L3.67833 0.857422C4.16656 0.633964 4.75669 0.458189 5.41173 0.325195ZM27.5035 6.64551C17.2246 5.08184 12.9355 5.70162 9.04747 6.37891C6.74273 6.78042 4.85003 7.37213 3.53868 7.99707C2.88067 8.31069 2.39917 8.61807 2.08849 8.8916C1.91294 9.0462 1.82155 9.1665 1.77306 9.24512C1.8081 9.29283 1.85735 9.35377 1.9254 9.4248C2.16556 9.67536 2.58188 10.0039 3.21446 10.3311C4.47409 10.9824 6.54991 11.6061 9.65392 11.6123C12.7071 11.6182 15.9724 10.631 18.6568 9.57617C19.9907 9.05202 21.1629 8.51822 22.0777 8.0957C22.5307 7.88649 22.9327 7.69961 23.2506 7.55859C23.5434 7.42874 23.8491 7.2985 24.0777 7.24512L24.1393 7.23145L24.1705 7.22363H24.2027L24.2652 7.22266C24.5684 7.21949 24.8358 7.30215 25.0201 7.36621C25.1384 7.40733 25.2196 7.43757 25.2906 7.46484C25.3602 7.49156 25.4218 7.51544 25.5104 7.54395C25.7589 7.62389 25.9445 7.64446 26.1861 7.54492C26.5191 7.40761 27.0406 7.05149 27.5035 6.64551ZM11.0436 1.81055C8.89058 1.65633 7.06663 1.76283 5.75841 2.02832C5.10255 2.16147 4.60919 2.32844 4.27696 2.5C4.12469 2.57871 4.02686 2.64775 3.96642 2.69922C3.98452 2.73886 4.00766 2.78671 4.03868 2.84082C4.1935 3.11071 4.48841 3.49188 4.97814 3.92188C5.40635 4.29782 5.9781 4.70337 6.71935 5.10059C7.36199 4.94397 8.04114 4.80247 8.75157 4.67871C12.0849 4.09806 15.693 3.5733 22.649 4.2793C17.0415 2.31271 13.9332 2.01758 11.0436 1.81055Z" fill="#090F1B"/>
<path d="M36.9996 0C38.1041 0 38.9994 0.895593 38.9996 2C38.9996 2.0982 38.9899 2.19465 38.9762 2.28906C39.0002 2.25196 39.0254 2.216 39.0475 2.17871C39.3828 1.61106 39.5182 0.994204 39.5113 0.338867L40.6481 0.327148C40.6541 0.907557 40.567 1.48767 40.358 2.05078C41.2914 2.30428 41.9995 3.52696 41.9996 5C41.9996 6.65685 41.1042 8 39.9996 8C39.788 7.99994 39.5846 7.94981 39.3932 7.8584C38.2589 9.2657 36.7073 9.5459 36.6852 9.5498C36.7068 9.49704 38.9511 3.95525 33.069 1.89648C33.7225 1.76577 34.3923 1.68359 35.0309 1.66113C35.1921 0.718423 36.011 0.000171584 36.9996 0Z" fill="#090F1B"/>
</svg>
