<svg width="216" height="80" viewBox="0 0 216 80" fill="none" xmlns="http://www.w3.org/2000/svg">
<g clip-path="url(#clip0_745_1179)">
<path d="M83.9499 14.8163C78.3849 16.1654 77.5417 17.1772 77.5417 18.695C77.5417 20.2127 79.3967 33.1978 101.488 44.4966C123.58 55.7953 138.42 62.8781 140.275 63.8899M181.254 48.2066C164.896 39.7747 129.179 21.5618 117.172 16.1654C104.362 10.4081 94.377 9.31897 87.3228 12.6883C86.112 13.2667 84.9875 13.9763 83.9499 14.8163M83.9499 14.8163H91.0328L91.7074 12.4554C90.9766 12.3992 89.2115 12.3671 87.3228 12.6883M146.177 70.098C145.677 69.5836 145.208 69.0862 144.768 68.6118C142.469 66.1317 140.987 64.2782 140.275 63.8899M140.275 63.8899C144.727 65.7787 147.302 66.5271 148.032 66.6652M226.004 61.5291L220.715 63.5527L208.264 72.1727C207.906 72.4209 207.873 72.9386 208.198 73.2296L212.452 77.0438C215.768 80.3592 218.144 83.779 218.434 86.3188C218.513 87.0087 218.438 87.6336 218.186 88.1739C217.005 90.7034 208.911 94.7241 204.358 94.5821C203.627 94.6945 200.513 94.6833 193.902 93.7389C188.941 92.9257 184.491 91.5634 179.736 89.69C174.632 87.6785 169.177 85.0776 162.367 81.9342C155.226 78.6386 149.875 73.9019 146.177 70.098M204.358 94.5821C210.363 97.2264 222.659 102.129 232.183 104.487M260.683 107.344C261.893 107.418 263.079 107.49 264.224 107.557C266.23 107.676 268.113 107.783 269.789 107.875C271.186 107.952 272.439 108.019 273.499 108.073C274.68 108.134 275.624 106.657 274.68 105.038C273.735 103.419 272.712 102.227 272.319 101.834M196.6 52.594H200.648M184.121 66.6652C185.645 67.3723 187.475 68.0591 189.686 68.6118C194.543 69.826 200.172 70.2477 201.491 69.1178C202.809 67.9878 205.611 65.0704 204.358 60.8545C203.811 59.0171 202.412 57.2451 200.648 55.6453C199.421 54.533 198.017 53.5039 196.6 52.594C193.632 50.6876 190.607 49.3042 189.031 48.7741M332.017 7.01366C331.265 6.9178 330.574 7.32641 329.993 8.23947C328.812 10.0945 322.91 19.0323 321.561 20.55C320.925 21.2656 315.79 23.181 311.105 24.8111C310.822 24.9096 310.541 25.0071 310.262 25.1032C305.421 26.7724 258.153 39.7747 237.073 45.0025C220.21 49.1847 205.538 51.8061 200.648 52.594M200.648 52.594L202.671 54.9522M315.666 29.6565C306.93 33.5256 294.347 38.9916 286.653 42.3043C286.227 42.4877 285.585 42.5471 284.967 42.4979C284.606 42.4692 284.253 42.4037 283.955 42.3043C283.145 42.0345 282.381 40.7303 282.1 40.112L269.958 44.5774M184.121 66.6652C181.46 65.4307 179.735 64.1346 178.556 63.384C177.681 62.8271 176.806 62.0076 176.161 60.8545C175.633 59.9105 175.259 58.743 175.166 57.3131C175.132 56.7871 175.135 56.2256 175.183 55.6267C175.183 54.7273 175.757 52.3551 178.05 50.0616C180.917 47.1948 185.639 47.7007 188.843 48.7125C188.903 48.7316 188.966 48.7521 189.031 48.7741M161.861 66.2509C159.798 63.9129 156.501 59.8392 158.008 57.819C158.348 57.3621 158.935 57.0102 159.837 56.8072C165.234 55.593 169.843 56.9758 171.473 57.819L172.316 57.7035L175.166 57.3131M189.031 48.7741C194.745 51.0735 195.42 58.6622 193.396 61.6977C191.372 64.7332 188.168 67.0795 184.121 66.6652M200.648 55.6453L202.671 54.9522M202.671 54.9522L253.263 42.473C271.026 37.5263 307.395 27.3293 310.768 26.1151M332.017 7.01366C331.342 7.22767 330.7 8.23947 329.824 9.75721C329.008 11.1701 324.025 18.6061 322.648 20.55C322.546 20.6943 322.463 20.8082 322.404 20.8873C321.392 22.2364 314.984 24.5973 310.768 26.1151M310.768 26.1151L315.666 29.6565M310.768 26.1151L311.105 24.8111M315.666 29.6565C320.716 27.4198 324.48 25.7167 325.271 25.2719C325.741 25.0073 326.207 24.5376 326.661 23.9228C328.81 21.0112 330.705 14.8441 331.679 11.7808C332.216 10.0945 333.178 7.47136 332.691 7.22767C332.462 7.11307 332.237 7.04173 332.017 7.01366M239.603 79.4473C239.154 79.1994 238.704 78.9516 238.254 78.7043C232.853 75.7373 227.481 72.8641 223.076 70.6355M263.887 93.6025C261.664 92.0019 250.888 85.6775 239.603 79.4473M266.079 93.2357L267.597 60.18L268.271 59.3368C267.278 58.6748 265.307 57.3605 264.224 56.6386C264.02 56.5022 263.847 56.387 263.718 56.3013C262.706 55.6267 260.008 54.4463 258.49 56.9758C256.973 59.5054 255.455 61.8663 254.274 64.0586C253.094 66.2509 246.854 76.5378 244.999 77.7183C243.144 78.8988 241.121 79.236 238.254 78.7043M264.899 46.5593C263.463 45.7179 262.185 44.9696 261.357 44.4966C260.177 43.8221 260.177 43.4848 260.345 42.9789C260.38 42.8763 260.559 42.7821 260.851 42.7067C261.998 42.4103 264.874 42.4039 267.428 43.3162C269.317 43.9907 273.049 46.4641 274.68 47.7007C274.741 47.8009 274.803 47.9143 274.867 48.038C275.443 49.1636 276.076 51.1403 276.197 51.7481C276.366 52.5912 275.523 52.4226 274.005 51.7481C273.492 51.5199 272.207 50.804 270.62 49.893C268.87 48.8883 266.753 47.6462 264.899 46.5593ZM276.197 51.7481C266.248 44.9147 262.538 43.1091 260.851 42.7067M314.478 88.0033L314.984 87.8366C314.815 87.6117 314.208 87.0271 313.129 86.4875C311.78 85.8129 311.443 85.8129 307.564 86.1502C303.685 86.4875 281.594 90.7034 261.02 94.0762C260.626 94.1886 259.839 94.5484 259.839 95.088C259.839 95.4346 259.929 95.9148 260.244 96.4371M314.478 88.0033C312.455 86.8248 311.105 86.9954 307.564 87.4993C304.731 87.9025 274.837 93.6258 260.244 96.4371M314.478 88.0033L271.981 102.004M260.244 96.4371C260.542 96.9312 261.043 97.463 261.863 97.9549C263.212 98.7643 268.833 101.103 271.475 102.171L271.981 102.004M269.789 107.875C271.402 107.276 272.489 106.193 272.487 104.363M271.981 102.004C272.249 102.806 272.487 103.706 272.487 104.363M232.183 104.487L228.812 107.457C228.532 107.704 228.51 108.136 228.758 108.415C229.309 109.035 230.152 109.328 230.967 109.175L246.011 106.341M232.183 104.487C232.932 104.672 233.664 104.842 234.375 104.994M260.683 107.344C255.852 107.046 250.63 106.699 246.011 106.341C243.325 106.133 240.843 105.92 238.76 105.712C237.438 105.58 235.96 105.332 234.375 104.994M234.375 104.994C231.407 106.513 229.991 107.23 229.653 107.399M239.603 79.4473C242.47 80.0792 245.674 79.4047 248.035 76.3692C250.396 73.3337 258.828 58.3249 259.334 57.3131C259.839 56.3013 261.526 54.8398 264.224 56.6386M192.553 55.6267C194.577 56.1326 197.612 57.819 199.13 58.8308M158.008 57.819C125.435 41.7984 121.556 39.4375 116.16 37.7511C110.763 36.0647 100.308 32.3547 96.092 30.331C92.913 28.8051 87.0495 25.4575 83.4897 23.3969C82.3284 22.7247 81.2958 21.7572 80.3119 20.55M87.8287 27.8015C89.5151 26.831 90.6956 23.7542 90.3583 20.55M116.497 73.3337C120.207 74.217 121.838 78.6599 120.882 82.1029C120.039 85.1384 117.678 88.6798 112.956 88.3425C111.665 88.2503 110.464 87.3075 109.623 86.1502C109.31 85.7193 109.047 85.2586 108.848 84.8011C107.504 81.8562 108.341 75.0809 113.462 73.8396C114.675 73.5454 115.408 73.3882 116.497 73.3337C119.494 73.1839 122.972 74.0753 129.651 77.0438M129.651 77.0438V78.8988M129.651 77.0438L144.218 68.9185M125.435 77.0438C126.448 77.5167 128.237 78.1228 129.651 78.8988M112.956 88.3425C115.47 89.8452 118.774 91.3188 122.062 92.3982M122.062 92.3982C125.772 91.8839 127.796 88.6798 128.133 84.4638M122.062 92.3982C124.162 93.0877 126.256 93.6164 128.133 93.8892M144.768 68.6118L144.218 68.9185M218.434 86.3188C225.943 91.8839 233.869 96.4371 246.854 98.798C258.574 100.929 265.967 103.183 268.271 103.689M272.487 104.363C271.981 104.363 270.632 104.363 269.452 104.026M108.848 84.8011C95.272 89.2567 83.0071 93.1358 76.8672 95.0598M69.7844 94.9194C69.385 95.5185 69.4472 95.7626 69.6158 96.2685C69.7844 96.7744 70.7963 96.943 72.9886 96.2685C73.5259 96.1031 74.8737 95.6845 76.8672 95.0598M69.7844 94.9194C70.459 93.9075 74.5063 87.6679 75.0122 86.9934C75.5181 86.3188 75.8554 86.4875 76.53 86.8248C77.2045 87.162 77.3732 87.6679 77.3732 88.3425C77.3732 88.8821 77.0359 92.7271 76.8672 95.0598M109.623 86.1502C99.7166 89.1295 79.127 95.3241 76.0241 96.2685C72.1454 97.4489 70.9649 97.6176 69.6158 97.4489C69.0212 97.3746 68.9794 96.8533 69.1464 96.2685C69.2824 95.7917 69.5572 95.2728 69.7844 94.9194M169.618 60.0113C169.618 60.5172 168.944 62.2036 172.316 64.9018C175.689 67.6 183.952 72.4906 202.671 81.0911C204.02 81.7109 206.213 81.0911 207.562 80.0792C212.688 76.7065 221.502 71.5349 226.449 68.6118L230.496 65.9957M169.618 60.0113C169.618 59.1681 171.473 57.9253 172.316 57.7035M169.618 60.0113C169.955 60.8545 172.316 60.8545 176.161 60.8545M326.661 23.9228C325.777 21.5619 323.904 20.7187 322.648 20.55M246.348 59.3051C247.653 60.1854 248.711 60.889 249.215 61.1918C250.562 61.9999 251.479 62.055 251.707 61.5291C251.765 61.3964 251.779 61.2269 251.745 61.0231C251.631 60.3381 251.285 58.7253 250.968 57.6504C250.817 57.1377 250.673 56.7475 250.564 56.6386C249.856 55.8242 248.327 54.4968 246.348 53.2886C245.186 52.5788 243.868 51.9101 242.47 51.4108C238.476 49.9846 236.172 50.3676 235.556 50.7238C235.443 50.7887 235.387 50.8528 235.387 50.9049C235.387 51.2421 234.881 51.7481 237.073 53.0972C237.898 53.6047 239.258 54.5075 240.783 55.5349C242.614 56.768 244.682 58.1806 246.348 59.3051ZM235.556 50.7238C236.905 50.4124 243.196 54.6018 245.843 56.4699C248.709 58.4936 252.007 60.6859 251.707 61.5291M264.899 46.5593L246.348 53.2886M230.496 65.9957C231.689 67.0613 232.691 67.8535 233.026 67.9373C233.652 68.0938 234.133 68.1051 234.199 67.4314C234.204 67.3793 234.214 67.3227 234.206 67.2627C234.076 66.2216 233.846 65.4818 233.437 64.7332C233.316 64.5118 233.18 64.2896 233.026 64.0586C233.026 64.0586 230.318 61.6309 228.515 60.18C227.895 59.681 227.383 59.2976 227.124 59.1681C226.531 58.8716 225.653 58.6591 225.1 58.6622M234.199 67.4314C234.125 66.5882 227.292 59.8108 225.1 58.6622M225.1 58.6622C224.709 58.6644 224.565 58.7901 224.425 58.9995C224.133 59.4385 224.475 59.8776 226.004 61.5291M240.783 55.5349C236.601 56.9575 230.862 59.2243 228.515 60.18M230.496 65.9957C229.29 64.9176 227.889 63.5596 226.786 62.3722C226.497 62.0602 226.236 61.7806 226.004 61.5291M233.437 64.7332L246.348 59.3051M250.968 57.6504L270.62 49.893M274.867 48.038L285.472 43.6534C285.726 43.3719 285.979 42.7467 284.967 42.4979M264.224 107.557C263.887 109.254 263.212 109.76 262.2 109.76C261.189 109.76 260.683 108.807 260.683 107.344M170.124 70.4669C166.347 68.713 161.242 66.0261 159.163 64.9018M105.536 93.5703C103.69 92.4347 99.2162 91.6575 97.947 91.8423M105.536 93.5703C105.622 93.6235 105.446 93.5112 105.536 93.5703ZM105.536 93.5703C106.733 94.3605 108.414 95.7977 108.571 96.2685C108.669 96.4642 108.761 96.653 108.848 96.8348M105.536 93.5703L114.331 91.8423M97.947 91.8423C97.7084 91.877 97.583 91.9458 97.6097 92.0525C97.7043 92.4311 98.7206 93.6249 99.9707 94.7507M97.947 91.8423C98.6215 92.2212 101.151 94.5821 104.693 96.7744C108.234 98.9667 109.657 99.4726 109.957 99.9785M109.957 99.9785C109.968 100.134 109.955 100.246 109.92 100.316C109.758 100.64 106.696 99.6289 103.849 97.6845M109.957 99.9785C109.919 99.4422 109.589 98.3943 108.848 96.8348M122.062 94.4135C124.423 98.1235 124.255 99.1353 124.255 99.1353C123.917 99.6412 120.039 97.1117 118.352 95.7626C118.254 95.684 118.153 95.602 118.05 95.5172C116.675 94.3868 114.911 92.7426 114.331 91.8423C114.206 91.6491 114.136 91.4902 114.136 91.378C114.136 91.2417 114.391 91.1881 114.811 91.2086C116.471 91.2896 120.716 92.5293 122.062 94.4135ZM122.062 94.4135L128.133 93.8892M124.255 99.1353C123.749 98.2921 117.003 92.3982 114.811 91.2086M129.651 78.8988L144.218 71.1414L146.177 70.098M129.651 78.8988C131.766 80.0598 133.633 81.565 135.553 83.2834C136.783 84.3839 137.467 85.5591 137.803 86.6561M99.9707 94.7507C100.948 95.6311 101.958 96.3389 103.512 97.4489C103.624 97.5289 103.737 97.6074 103.849 97.6845M99.9707 94.7507L93.8864 95.6634C93.6126 95.7044 93.5022 96.0396 93.698 96.2354L94.2974 96.8348M69.1464 96.2685C68.9656 96.8868 68.8063 98.2247 69.6158 98.6294C70.6276 99.1353 75.0122 100.822 76.3613 100.653C77.4406 100.518 89.0654 98.5732 95.0802 97.6176L94.2974 96.8348M143.648 95.7626C143.648 96.2685 142.636 96.0998 142.13 95.7626C141.725 95.4927 138.312 93.0366 136.655 91.8423M143.648 95.7626C142.164 94.4135 138.757 92.1572 137.24 91.1977M137.803 86.6561C138.11 86.9186 138.519 87.2748 138.963 87.6679C140.039 88.622 141.315 89.7929 141.793 90.3661C142.144 90.8779 142.474 91.6226 142.756 92.3982C143.288 93.8601 143.648 95.432 143.648 95.7626M136.655 91.8423C135.438 93.0193 133.216 94.3245 129.988 94.0762C129.401 94.0468 128.78 93.9832 128.133 93.8892M136.655 91.8423C136.886 91.619 137.081 91.4003 137.24 91.1977M137.803 86.6561C138.344 88.4167 137.993 89.9761 137.577 90.7034C137.493 90.8501 137.381 91.0175 137.24 91.1977M142.756 92.3982L175.166 91.911L179.736 91.8423V89.69M138.963 87.6679L158.008 85.307L167.594 86.1502L175.166 91.911M118.05 95.5172L108.848 96.8348M103.849 97.6845L97.0681 98.7022C96.6642 98.7628 96.2545 98.6371 95.954 98.3604L94.2974 96.8348M144.218 71.1414V68.9185M92.5506 12.4554L91.876 15.1536L96.5979 16.6714L95.2488 12.7927L92.5506 12.4554ZM96.092 12.9613L97.6097 16.84L100.582 16.7049C100.87 16.6918 101.01 16.3453 100.811 16.1357L98.1156 13.2986L96.092 12.9613ZM115.148 19.7068C115.523 21.3321 115.638 25.1587 115.652 27.4556C115.654 27.6988 115.404 27.8609 115.182 27.7634L110.46 25.6976C110.337 25.6439 110.258 25.5227 110.257 25.3887C110.25 23.0135 110.119 19.3232 109.752 17.8518C109.632 17.3716 109.227 16.4356 108.963 15.8347C108.861 15.6022 109.044 15.355 109.295 15.3912C112.237 15.8148 114.548 17.1056 115.148 19.7068Z" stroke="#56DD93" stroke-width="0.6"/>
<ellipse cx="4.8905" cy="6.40824" rx="4.8905" ry="6.40824" transform="matrix(-0.972487 -0.232957 -0.232957 0.972487 187.84 50.3672)" stroke="#56DD93" stroke-width="0.6"/>
<path d="M177.499 62.5393C178.14 62.9963 178.865 63.3351 179.659 63.5253C183.441 64.4313 187.356 61.6228 188.403 57.2524C189.369 53.2162 186.988 48.5422 183.784 47.8677" stroke="#56DD93" stroke-width="0.6"/>
<ellipse cx="4.52433" cy="6.23211" rx="4.52433" ry="6.23211" transform="matrix(-0.972487 -0.232957 -0.232957 0.972487 120.376 75.4414)" stroke="#56DD93" stroke-width="0.6"/>
<path d="M145.334 35.0921C145.334 34.8595 145.214 34.6433 145.017 34.52L144.501 34.1975C144.277 34.0571 143.985 34.2186 143.985 34.4835V36.1993C143.985 36.4319 144.105 36.6481 144.302 36.7714L144.818 37.0939C145.043 37.2343 145.334 37.0728 145.334 36.8079V35.0921Z" stroke="#56DD93" stroke-width="0.6"/>
<path d="M142.636 33.4046C142.636 33.172 142.516 32.9558 142.319 32.8325L141.803 32.51C141.578 32.3696 141.287 32.5311 141.287 32.796V34.5118C141.287 34.7444 141.407 34.9606 141.604 35.0839L142.12 35.4064C142.345 35.5468 142.636 35.3853 142.636 35.1204V33.4046Z" stroke="#56DD93" stroke-width="0.6"/>
<path d="M174.003 49.5921C174.003 49.3595 173.883 49.1433 173.686 49.02L173.17 48.6975C172.945 48.5571 172.654 48.7186 172.654 48.9835V50.6993C172.654 50.9319 172.773 51.1481 172.971 51.2714L173.487 51.5939C173.711 51.7343 174.003 51.5728 174.003 51.3079V49.5921Z" stroke="#56DD93" stroke-width="0.6"/>
<path d="M131.506 27.6702C131.506 27.4376 131.386 27.2214 131.189 27.0982L130.673 26.7756C130.448 26.6352 130.157 26.7967 130.157 27.0617V28.7775C130.157 29.01 130.277 29.2262 130.474 29.3495L130.99 29.672C131.214 29.8124 131.506 29.6509 131.506 29.386V27.6702Z" stroke="#56DD93" stroke-width="0.6"/>
<path d="M162.873 43.8577C162.873 43.6251 162.753 43.4089 162.556 43.2857L162.039 42.9631C161.815 42.8227 161.523 42.9842 161.523 43.2492V44.965C161.523 45.1975 161.643 45.4137 161.84 45.537L162.357 45.8595C162.581 45.9999 162.873 45.8384 162.873 45.5735V43.8577Z" stroke="#56DD93" stroke-width="0.6"/>
<path d="M139.938 32.053C139.938 31.8204 139.818 31.6042 139.621 31.481L139.105 31.1585C138.88 31.0181 138.589 31.1796 138.589 31.4445V33.1603C138.589 33.3929 138.708 33.609 138.906 33.7323L139.422 34.0548C139.646 34.1952 139.938 34.0337 139.938 33.7688V32.053Z" stroke="#56DD93" stroke-width="0.6"/>
<path d="M171.304 48.2405C171.304 48.0079 171.185 47.7917 170.987 47.6685L170.471 47.346C170.247 47.2056 169.955 47.3671 169.955 47.632V49.3478C169.955 49.5804 170.075 49.7965 170.272 49.9198L170.788 50.2423C171.013 50.3827 171.304 50.2212 171.304 49.9563V48.2405Z" stroke="#56DD93" stroke-width="0.6"/>
<path d="M128.808 26.3186C128.808 26.086 128.688 25.8699 128.491 25.7466L127.975 25.4241C127.75 25.2837 127.459 25.4452 127.459 25.7101V27.4259C127.459 27.6585 127.578 27.8747 127.776 27.9979L128.292 28.3204C128.516 28.4608 128.808 28.2993 128.808 28.0344V26.3186Z" stroke="#56DD93" stroke-width="0.6"/>
<path d="M160.174 42.51C160.174 42.2774 160.055 42.0613 159.857 41.938L159.341 41.6155C159.117 41.4751 158.825 41.6366 158.825 41.9015V43.6173C158.825 43.8499 158.945 44.0661 159.142 44.1893L159.658 44.5118C159.883 44.6522 160.174 44.4907 160.174 44.2258V42.51Z" stroke="#56DD93" stroke-width="0.6"/>
<path d="M137.24 30.7053C137.24 30.4728 137.12 30.2566 136.923 30.1333L136.407 29.8108C136.182 29.6704 135.891 29.8319 135.891 30.0968V31.8126C135.891 32.0452 136.01 32.2614 136.208 32.3846L136.724 32.7072C136.948 32.8476 137.24 32.6861 137.24 32.4211V30.7053Z" stroke="#56DD93" stroke-width="0.6"/>
<path d="M168.606 46.8967C168.606 46.6642 168.486 46.448 168.289 46.3247L167.773 46.0022C167.548 45.8618 167.257 46.0233 167.257 46.2882V48.004C167.257 48.2366 167.377 48.4528 167.574 48.576L168.09 48.8986C168.315 49.039 168.606 48.8775 168.606 48.6126V46.8967Z" stroke="#56DD93" stroke-width="0.6"/>
<path d="M126.11 24.971C126.11 24.7384 125.99 24.5222 125.793 24.3989L125.277 24.0764C125.052 23.936 124.761 24.0975 124.761 24.3624V26.0782C124.761 26.3108 124.88 26.527 125.078 26.6503L125.594 26.9728C125.818 27.1132 126.11 26.9517 126.11 26.6868V24.971Z" stroke="#56DD93" stroke-width="0.6"/>
<path d="M157.476 41.1624C157.476 40.9298 157.356 40.7136 157.159 40.5904L156.643 40.2678C156.418 40.1274 156.127 40.2889 156.127 40.5538V42.2697C156.127 42.5022 156.247 42.7184 156.444 42.8417L156.96 43.1642C157.185 43.3046 157.476 43.1431 157.476 42.8782V41.1624Z" stroke="#56DD93" stroke-width="0.6"/>
<path d="M134.542 29.3577C134.542 29.1251 134.422 28.9089 134.224 28.7857L133.708 28.4631C133.484 28.3227 133.192 28.4842 133.192 28.7492V30.465C133.192 30.6975 133.312 30.9137 133.509 31.037L134.025 31.3595C134.25 31.4999 134.542 31.3384 134.542 31.0735V29.3577Z" stroke="#56DD93" stroke-width="0.6"/>
<path d="M165.908 45.5452C165.908 45.3126 165.788 45.0964 165.591 44.9732L165.075 44.6506C164.85 44.5102 164.559 44.6717 164.559 44.9367V46.6525C164.559 46.885 164.679 47.1012 164.876 47.2245L165.392 47.547C165.617 47.6874 165.908 47.5259 165.908 47.261V45.5452Z" stroke="#56DD93" stroke-width="0.6"/>
<path d="M123.411 23.6233C123.411 23.3907 123.292 23.1746 123.094 23.0513L122.578 22.7288C122.354 22.5884 122.062 22.7499 122.062 23.0148V24.7306C122.062 24.9632 122.182 25.1793 122.379 25.3026L122.895 25.6251C123.12 25.7655 123.411 25.604 123.411 25.3391V23.6233Z" stroke="#56DD93" stroke-width="0.6"/>
<path d="M151.657 36.3167L148.928 34.8477C148.691 34.7196 148.409 34.9086 148.444 35.1766C148.6 36.3718 148.876 38.0847 148.876 38.9315C148.876 39.7073 148.926 42.1312 148.884 43.4385C148.88 43.5699 148.95 43.6921 149.067 43.7526L152.936 45.7589C153.161 45.8753 153.429 45.713 153.429 45.4601V41.9669C153.429 40.5458 153.21 39.1441 153.012 38.1276C152.86 37.3512 152.353 36.6917 151.657 36.3167Z" stroke="#56DD93" stroke-width="0.6"/>
</g>
<defs>
<clipPath id="clip0_745_1179">
<rect width="216" height="80" fill="white"/>
</clipPath>
</defs>
</svg>
